<svg width="33" height="25" viewBox="0 0 33 25" fill="none" xmlns="http://www.w3.org/2000/svg">
<path d="M29.9062 0.25C31.582 0.25 33 1.66797 33 3.34375C33 4.375 32.4844 5.27734 31.7109 5.85742L17.7246 16.3633C16.9512 16.9434 15.9844 16.9434 15.2109 16.3633L1.22461 5.85742C0.451172 5.27734 0 4.375 0 3.34375C0 1.66797 1.35352 0.25 3.09375 0.25H29.9062ZM13.9863 18.0391C15.4688 19.1348 17.4668 19.1348 18.9492 18.0391L33 7.46875V20.875C33 23.1953 31.1309 25 28.875 25H4.125C1.80469 25 0 23.1953 0 20.875V7.46875L13.9863 18.0391Z" fill="white"/>
</svg>
