<svg width="187" height="55" viewBox="0 0 187 55" fill="none" xmlns="http://www.w3.org/2000/svg">
<path d="M15.84 16.282C18.26 16.546 20.196 16.975 21.648 17.569C23.122 18.163 24.189 18.944 24.849 19.912C25.509 20.88 25.839 22.09 25.839 23.542C25.839 25.126 25.322 26.512 24.288 27.7C23.276 28.866 21.868 29.768 20.064 30.406C18.26 31.022 16.203 31.33 13.893 31.33C11.319 31.33 9.141 31.011 7.359 30.373C5.577 29.735 4.246 28.888 3.366 27.832C2.486 26.754 2.046 25.577 2.046 24.301C2.046 24.081 2.112 23.905 2.244 23.773C2.398 23.641 2.585 23.575 2.805 23.575H9.57C10.032 23.575 10.406 23.718 10.692 24.004C11.066 24.356 11.484 24.598 11.946 24.73C12.408 24.84 13.057 24.895 13.893 24.895C15.983 24.895 17.028 24.576 17.028 23.938C17.028 23.674 16.885 23.454 16.599 23.278C16.335 23.08 15.851 22.915 15.147 22.783C14.465 22.629 13.453 22.475 12.111 22.321C9.097 21.969 6.787 21.221 5.181 20.077C3.575 18.911 2.772 17.272 2.772 15.16C2.772 13.664 3.223 12.344 4.125 11.2C5.027 10.056 6.303 9.165 7.953 8.527C9.625 7.889 11.561 7.57 13.761 7.57C16.049 7.57 18.051 7.933 19.767 8.659C21.483 9.363 22.792 10.243 23.694 11.299C24.596 12.355 25.047 13.389 25.047 14.401C25.047 14.621 24.97 14.797 24.816 14.929C24.684 15.061 24.497 15.127 24.255 15.127H17.16C16.786 15.127 16.445 14.995 16.137 14.731C15.895 14.511 15.609 14.335 15.279 14.203C14.949 14.071 14.443 14.005 13.761 14.005C12.287 14.005 11.55 14.313 11.55 14.929C11.55 15.259 11.836 15.523 12.408 15.721C12.98 15.897 14.124 16.084 15.84 16.282ZM37.3101 29.878C37.0241 30.626 36.5291 31 35.8251 31H29.5881C29.3901 31 29.2141 30.934 29.0601 30.802C28.9281 30.648 28.8621 30.472 28.8621 30.274L28.8951 30.076L36.0891 8.989C36.1771 8.703 36.3421 8.45 36.5841 8.23C36.8261 8.01 37.1561 7.9 37.5741 7.9H46.7481C47.1661 7.9 47.4961 8.01 47.7381 8.23C47.9801 8.45 48.1451 8.703 48.2331 8.989L55.4271 30.076L55.4601 30.274C55.4601 30.472 55.3831 30.648 55.2291 30.802C55.0971 30.934 54.9321 31 54.7341 31H48.4971C47.7931 31 47.2981 30.626 47.0121 29.878L46.1871 27.568H38.1351L37.3101 29.878ZM42.1611 14.269L39.8181 21.133H44.5041L42.1611 14.269ZM79.5372 18.955C80.3952 19.219 81.1322 19.802 81.7482 20.704C82.3642 21.584 82.6722 22.596 82.6722 23.74C82.6722 26.182 81.8802 28.008 80.2962 29.218C78.7122 30.406 76.4022 31 73.3662 31H59.7702C59.5282 31 59.3192 30.912 59.1432 30.736C58.9672 30.56 58.8792 30.351 58.8792 30.109V8.791C58.8792 8.549 58.9672 8.34 59.1432 8.164C59.3192 7.988 59.5282 7.9 59.7702 7.9H73.0362C76.1602 7.9 78.4592 8.472 79.9332 9.616C81.4292 10.738 82.1772 12.443 82.1772 14.731V14.83C82.1772 15.886 81.8912 16.788 81.3192 17.536C80.7472 18.284 80.1532 18.757 79.5372 18.955ZM73.2342 15.028C73.2342 14.632 73.1132 14.291 72.8712 14.005C72.6512 13.719 72.3212 13.576 71.8812 13.576H67.4592V16.579H71.8812C72.3212 16.579 72.6512 16.425 72.8712 16.117C73.1132 15.787 73.2342 15.424 73.2342 15.028ZM72.2442 25.324C72.7502 25.324 73.1242 25.159 73.3662 24.829C73.6302 24.477 73.7622 24.092 73.7622 23.674V23.641C73.7622 23.223 73.6192 22.86 73.3332 22.552C73.0692 22.244 72.7062 22.09 72.2442 22.09H67.4592V25.324H72.2442Z" fill="white"/>
<path d="M183.126 29.977C183.17 30.065 183.192 30.164 183.192 30.274C183.192 30.472 183.115 30.648 182.961 30.802C182.829 30.934 182.664 31 182.466 31H174.975C174.667 31 174.381 30.923 174.117 30.769C173.875 30.615 173.699 30.417 173.589 30.175L170.685 23.641H167.913V30.109C167.913 30.351 167.825 30.56 167.649 30.736C167.473 30.912 167.264 31 167.022 31H159.894C159.652 31 159.443 30.912 159.267 30.736C159.091 30.56 159.003 30.351 159.003 30.109V8.791C159.003 8.549 159.091 8.34 159.267 8.164C159.443 7.988 159.652 7.9 159.894 7.9H172.731C174.711 7.9 176.438 8.219 177.912 8.857C179.408 9.495 180.552 10.419 181.344 11.629C182.136 12.839 182.532 14.258 182.532 15.886C182.532 18.878 181.377 21.045 179.067 22.387L183.126 29.977ZM172.038 17.536C172.522 17.536 172.896 17.382 173.16 17.074C173.424 16.744 173.556 16.337 173.556 15.853C173.556 15.369 173.424 14.951 173.16 14.599C172.918 14.225 172.544 14.038 172.038 14.038H167.913V17.536H172.038Z" fill="white"/>
<rect x="88" y="10" width="66" height="19" rx="9.5" stroke="white" stroke-width="4"/>
<rect x="90" y="12" width="57" height="15" rx="7.5" fill="white"/>
<rect x="135" y="10" width="19" height="19" rx="9.5" fill="#A2FF8D"/>
<path d="M133.25 18C133.656 18 134 18.3438 134 18.75V26.25C134 26.6875 133.656 27 133.25 27H130.75C130.312 27 130 26.6875 130 26.25V18.75C130 18.3438 130.312 18 130.75 18H133.25ZM132 25.75C132.406 25.75 132.75 25.4375 132.75 25C132.75 24.5938 132.406 24.25 132 24.25C131.562 24.25 131.25 24.5938 131.25 25C131.25 25.4375 131.562 25.75 132 25.75ZM142 13.5625C142 14.875 141.188 15.625 140.938 16.5H144.125C145.156 16.5 145.969 17.375 145.969 18.3438C146 18.9062 145.75 19.5 145.375 19.875C145.688 20.5938 145.625 21.625 145.094 22.3438C145.344 23.1562 145.094 24.1562 144.562 24.6875C144.719 25.25 144.656 25.7188 144.375 26.0938C143.75 27 142.156 27 140.812 27H140.719C139.219 27 138 26.4688 137 26.0312C136.5 25.8125 135.844 25.5312 135.344 25.5312C135.156 25.5 135 25.3438 135 25.1562V18.4688C135 18.375 135.031 18.2812 135.094 18.1875C136.344 16.9688 136.875 15.6875 137.875 14.6562C138.344 14.1875 138.5 13.5 138.688 12.8125C138.812 12.25 139.094 11 139.75 11C140.5 11 142 11.25 142 13.5625Z" fill="#222127"/>
</svg>
