<svg width="1004" height="368" viewBox="0 0 1004 368" fill="none" xmlns="http://www.w3.org/2000/svg">
<path d="M193.576 150.708C199.012 151.304 203.36 152.271 206.621 153.61C209.932 154.949 212.328 156.71 213.811 158.892C215.293 161.075 216.034 163.803 216.034 167.076C216.034 170.648 214.873 173.772 212.551 176.451C210.278 179.08 207.115 181.113 203.063 182.552C199.012 183.94 194.392 184.635 189.203 184.635C183.422 184.635 178.531 183.916 174.528 182.477C170.526 181.039 167.536 179.129 165.56 176.748C163.583 174.318 162.595 171.664 162.595 168.788C162.595 168.292 162.743 167.895 163.04 167.597C163.386 167.3 163.806 167.151 164.3 167.151H179.494C180.532 167.151 181.372 167.473 182.014 168.118C182.854 168.912 183.793 169.457 184.831 169.755C185.868 170.003 187.326 170.127 189.203 170.127C193.898 170.127 196.245 169.408 196.245 167.969C196.245 167.374 195.923 166.878 195.281 166.481C194.688 166.035 193.601 165.663 192.02 165.365C190.488 165.018 188.215 164.671 185.201 164.324C178.432 163.53 173.243 161.844 169.636 159.264C166.029 156.636 164.226 152.94 164.226 148.179C164.226 144.806 165.239 141.83 167.265 139.251C169.291 136.672 172.156 134.663 175.862 133.224C179.618 131.786 183.966 131.067 188.907 131.067C194.046 131.067 198.542 131.885 202.396 133.522C206.251 135.109 209.191 137.093 211.216 139.474C213.242 141.855 214.255 144.186 214.255 146.468C214.255 146.964 214.082 147.36 213.736 147.658C213.44 147.956 213.02 148.104 212.476 148.104H196.541C195.701 148.104 194.935 147.807 194.243 147.212C193.7 146.716 193.058 146.319 192.316 146.021C191.575 145.724 190.439 145.575 188.907 145.575C185.596 145.575 183.941 146.269 183.941 147.658C183.941 148.402 184.583 148.997 185.868 149.444C187.153 149.84 189.722 150.262 193.576 150.708ZM241.798 181.361C241.156 183.048 240.044 183.891 238.463 183.891H224.454C224.01 183.891 223.614 183.742 223.269 183.444C222.972 183.097 222.824 182.7 222.824 182.254L222.898 181.808L239.056 134.266C239.253 133.621 239.624 133.051 240.167 132.555C240.711 132.059 241.452 131.811 242.391 131.811H262.996C263.934 131.811 264.676 132.059 265.219 132.555C265.763 133.051 266.133 133.621 266.331 134.266L282.489 181.808L282.563 182.254C282.563 182.7 282.39 183.097 282.044 183.444C281.747 183.742 281.377 183.891 280.932 183.891H266.924C265.343 183.891 264.231 183.048 263.589 181.361L261.736 176.153H243.651L241.798 181.361ZM252.693 146.17L247.431 161.645H257.956L252.693 146.17ZM336.64 156.735C338.567 157.33 340.222 158.644 341.606 160.678C342.989 162.662 343.681 164.944 343.681 167.523C343.681 173.028 341.902 177.145 338.344 179.873C334.787 182.552 329.598 183.891 322.78 183.891H292.243C291.7 183.891 291.23 183.692 290.835 183.296C290.44 182.899 290.242 182.428 290.242 181.882V133.82C290.242 133.274 290.44 132.803 290.835 132.406C291.23 132.009 291.7 131.811 292.243 131.811H322.038C329.055 131.811 334.218 133.1 337.529 135.68C340.889 138.209 342.569 142.053 342.569 147.212V147.435C342.569 149.816 341.927 151.849 340.642 153.536C339.357 155.222 338.023 156.288 336.64 156.735ZM322.483 147.881C322.483 146.988 322.211 146.22 321.668 145.575C321.174 144.93 320.433 144.608 319.444 144.608H309.513V151.378H319.444C320.433 151.378 321.174 151.031 321.668 150.336C322.211 149.592 322.483 148.774 322.483 147.881ZM320.26 171.094C321.396 171.094 322.236 170.722 322.78 169.978C323.373 169.184 323.669 168.316 323.669 167.374V167.3C323.669 166.357 323.348 165.539 322.706 164.844C322.113 164.15 321.297 163.803 320.26 163.803H309.513V171.094H320.26Z" fill="white"/>
<path d="M569.299 181.585C569.398 181.783 569.447 182.006 569.447 182.254C569.447 182.701 569.274 183.097 568.929 183.445C568.632 183.742 568.261 183.891 567.817 183.891H550.992C550.3 183.891 549.658 183.717 549.065 183.37C548.521 183.023 548.126 182.577 547.879 182.031L541.357 167.3H535.131V181.882C535.131 182.428 534.933 182.899 534.538 183.296C534.143 183.693 533.673 183.891 533.13 183.891H517.12C516.577 183.891 516.107 183.693 515.712 183.296C515.317 182.899 515.119 182.428 515.119 181.882V133.82C515.119 133.274 515.317 132.803 515.712 132.406C516.107 132.009 516.577 131.811 517.12 131.811H545.952C550.399 131.811 554.278 132.53 557.589 133.969C560.949 135.407 563.518 137.49 565.297 140.218C567.076 142.946 567.965 146.145 567.965 149.816C567.965 156.561 565.371 161.447 560.183 164.473L569.299 181.585ZM544.396 153.536C545.483 153.536 546.323 153.189 546.916 152.494C547.509 151.75 547.805 150.833 547.805 149.741C547.805 148.65 547.509 147.708 546.916 146.914C546.372 146.071 545.532 145.649 544.396 145.649H535.131V153.536H544.396Z" fill="white"/>
<path d="M482.545 136.545H376.984C365.2 136.545 355.647 146.135 355.647 157.964C355.647 169.793 365.2 179.382 376.984 179.382H482.545C494.329 179.382 503.882 169.793 503.882 157.964C503.882 146.135 494.329 136.545 482.545 136.545Z" stroke="white" stroke-width="4"/>
<path d="M471.316 139.555L471.79 139.56C481.707 139.813 489.661 147.961 489.661 157.964C489.661 168.125 481.453 176.373 471.316 176.373H376.984C366.847 176.373 358.639 168.125 358.639 157.964C358.639 147.802 366.847 139.555 376.984 139.555H471.316Z" fill="white" stroke="white" stroke-width="3"/>
<path d="M503.882 157.964C503.882 146.135 494.329 136.545 482.545 136.545C470.761 136.545 461.208 146.135 461.208 157.964C461.208 169.793 470.761 179.382 482.545 179.382C494.329 179.382 503.882 169.793 503.882 157.964Z" fill="#A2FF8D"/>
<path d="M457.278 154.582C458.19 154.582 458.962 155.357 458.962 156.273V173.182C458.962 174.168 458.19 174.873 457.278 174.873H451.663C450.679 174.873 449.979 174.168 449.979 173.182V156.273C449.979 155.357 450.679 154.582 451.663 154.582H457.278ZM454.47 172.055C455.382 172.055 456.155 171.35 456.155 170.364C456.155 169.448 455.382 168.673 454.47 168.673C453.487 168.673 452.786 169.448 452.786 170.364C452.786 171.35 453.487 172.055 454.47 172.055ZM476.93 144.577C476.93 147.536 475.107 149.227 474.545 151.2H481.703C484.019 151.2 485.845 153.173 485.845 155.357C485.914 156.625 485.353 157.964 484.511 158.809C485.214 160.43 485.072 162.755 483.879 164.375C484.441 166.207 483.879 168.461 482.685 169.659C483.037 170.927 482.896 171.984 482.265 172.83C480.861 174.873 477.281 174.873 474.262 174.873H474.053C470.684 174.873 467.946 173.675 465.7 172.689C464.577 172.195 463.104 171.561 461.981 171.561C461.559 171.491 461.208 171.139 461.208 170.716V155.639C461.208 155.427 461.278 155.216 461.42 155.005C464.227 152.257 465.42 149.368 467.666 147.043C468.719 145.986 469.069 144.436 469.492 142.886C469.77 141.618 470.404 138.8 471.877 138.8C473.561 138.8 476.93 139.364 476.93 144.577Z" fill="#222127"/>
<path d="M610.922 155.387C609.259 155.387 607.668 154.971 606.149 154.14C604.63 153.309 603.397 152.105 602.451 150.528C601.534 148.951 601.075 147.031 601.075 144.766C601.075 142.817 601.405 141.025 602.064 139.391C602.723 137.757 603.626 136.338 604.773 135.134C605.948 133.93 607.296 132.998 608.815 132.339C610.363 131.651 611.997 131.307 613.717 131.307C615.609 131.307 617.229 131.68 618.576 132.425C619.952 133.142 620.955 134.317 621.586 135.951C622.217 137.556 622.36 139.735 622.016 142.487C621.758 145.096 621.142 147.375 620.167 149.324C619.192 151.273 617.931 152.778 616.383 153.839C614.835 154.871 613.015 155.387 610.922 155.387ZM613.76 148.808C614.849 148.808 615.81 148.536 616.641 147.991C617.472 147.446 618.117 146.687 618.576 145.712C619.063 144.737 619.307 143.605 619.307 142.315C619.307 140.968 618.92 139.893 618.146 139.09C617.372 138.259 616.283 137.843 614.878 137.843C613.817 137.843 612.857 138.13 611.997 138.703C611.166 139.248 610.506 140.007 610.019 140.982C609.56 141.957 609.331 143.089 609.331 144.379C609.331 145.726 609.718 146.801 610.492 147.604C611.266 148.407 612.355 148.808 613.76 148.808ZM615.093 163.342L617.544 151.044L619.522 143.39L620.941 135.865L621.801 131.694H629.584L623.263 163.342H615.093ZM640.218 155.387C638.326 155.387 636.678 154.986 635.273 154.183C633.897 153.352 632.923 152.133 632.349 150.528C631.776 148.923 631.719 146.93 632.177 144.551L634.757 131.694H642.927L640.519 143.777C640.204 145.268 640.29 146.414 640.777 147.217C641.293 148.02 642.196 148.421 643.486 148.421C644.862 148.421 646.009 148.005 646.926 147.174C647.872 146.314 648.517 144.995 648.861 143.218L651.183 131.694H659.353L654.709 155H646.969L648.302 148.421L649.334 150.313C648.216 152.062 646.84 153.352 645.206 154.183C643.601 154.986 641.938 155.387 640.218 155.387ZM673.13 155.387C670.636 155.387 668.457 154.957 666.594 154.097C664.759 153.208 663.326 151.976 662.294 150.399C661.262 148.794 660.746 146.916 660.746 144.766C660.746 142.186 661.334 139.893 662.509 137.886C663.684 135.851 665.333 134.245 667.454 133.07C669.575 131.895 672.041 131.307 674.85 131.307C677.229 131.307 679.265 131.737 680.956 132.597C682.676 133.457 683.995 134.661 684.912 136.209C685.858 137.728 686.331 139.506 686.331 141.541C686.331 142.229 686.288 142.888 686.202 143.519C686.116 144.15 686.001 144.766 685.858 145.368H667.153L667.927 141.068H682.074L678.677 142.315C678.906 141.197 678.863 140.265 678.548 139.52C678.261 138.746 677.76 138.158 677.043 137.757C676.355 137.327 675.495 137.112 674.463 137.112C673.144 137.112 672.055 137.442 671.195 138.101C670.364 138.76 669.733 139.663 669.303 140.81C668.902 141.928 668.701 143.146 668.701 144.465C668.701 146.07 669.145 147.26 670.034 148.034C670.923 148.779 672.256 149.152 674.033 149.152C675.065 149.152 676.068 148.994 677.043 148.679C678.046 148.335 678.921 147.862 679.666 147.26L683.063 152.377C681.601 153.466 680.01 154.24 678.29 154.699C676.599 155.158 674.879 155.387 673.13 155.387ZM699.906 155L704.55 131.694H712.677L708.033 155H699.906ZM709.753 129.114C708.32 129.114 707.173 128.727 706.313 127.953C705.482 127.15 705.066 126.19 705.066 125.072C705.066 123.753 705.539 122.65 706.485 121.761C707.46 120.872 708.736 120.428 710.312 120.428C711.746 120.428 712.892 120.801 713.752 121.546C714.612 122.291 715.042 123.223 715.042 124.341C715.042 125.746 714.555 126.892 713.58 127.781C712.606 128.67 711.33 129.114 709.753 129.114ZM732.523 131.307C734.501 131.307 736.178 131.723 737.554 132.554C738.93 133.357 739.905 134.561 740.478 136.166C741.08 137.743 741.137 139.721 740.65 142.1L738.07 155H729.9L732.308 142.874C732.623 141.383 732.523 140.237 732.007 139.434C731.52 138.631 730.602 138.23 729.255 138.23C727.879 138.23 726.718 138.66 725.772 139.52C724.826 140.38 724.167 141.699 723.794 143.476L721.472 155H713.302L717.946 131.694H725.686L724.353 138.23L723.321 136.338C724.439 134.589 725.815 133.314 727.449 132.511C729.112 131.708 730.803 131.307 732.523 131.307ZM752.358 155.387C750.294 155.387 748.345 155.172 746.51 154.742C744.676 154.283 743.257 153.739 742.253 153.108L745.22 147.389C746.31 148.077 747.585 148.607 749.047 148.98C750.509 149.353 751.928 149.539 753.304 149.539C754.652 149.539 755.612 149.396 756.185 149.109C756.759 148.794 757.045 148.378 757.045 147.862C757.045 147.403 756.744 147.074 756.142 146.873C755.569 146.644 754.824 146.457 753.906 146.314C752.989 146.171 752.014 145.984 750.982 145.755C749.979 145.526 749.019 145.196 748.101 144.766C747.184 144.336 746.424 143.734 745.822 142.96C745.249 142.157 744.962 141.097 744.962 139.778C744.962 137.915 745.507 136.352 746.596 135.091C747.686 133.83 749.162 132.884 751.025 132.253C752.917 131.622 755.039 131.307 757.389 131.307C759.052 131.307 760.657 131.465 762.205 131.78C763.753 132.095 765.101 132.554 766.247 133.156L763.366 138.875C762.22 138.187 761.044 137.728 759.84 137.499C758.636 137.241 757.504 137.112 756.443 137.112C755.096 137.112 754.136 137.284 753.562 137.628C752.989 137.972 752.702 138.388 752.702 138.875C752.702 139.305 752.989 139.649 753.562 139.907C754.164 140.136 754.91 140.337 755.798 140.509C756.716 140.652 757.69 140.839 758.722 141.068C759.754 141.269 760.715 141.584 761.603 142.014C762.521 142.444 763.266 143.046 763.839 143.82C764.441 144.594 764.742 145.64 764.742 146.959C764.742 148.794 764.183 150.342 763.065 151.603C761.976 152.864 760.5 153.81 758.636 154.441C756.773 155.072 754.68 155.387 752.358 155.387ZM782.625 155.387C780.762 155.387 779.142 155.029 777.766 154.312C776.39 153.567 775.387 152.377 774.756 150.743C774.125 149.109 773.982 146.93 774.326 144.207C774.613 141.541 775.229 139.248 776.175 137.327C777.15 135.406 778.411 133.93 779.959 132.898C781.536 131.837 783.356 131.307 785.42 131.307C787.111 131.307 788.702 131.723 790.193 132.554C791.712 133.385 792.931 134.589 793.848 136.166C794.794 137.714 795.267 139.62 795.267 141.885C795.267 143.834 794.937 145.626 794.278 147.26C793.619 148.894 792.701 150.327 791.526 151.56C790.379 152.764 789.046 153.71 787.527 154.398C786.008 155.057 784.374 155.387 782.625 155.387ZM765.081 163.342L771.402 131.694H779.142L778.325 135.607L776.82 143.304L775.745 150.958L773.251 163.342H765.081ZM781.464 148.808C782.553 148.808 783.514 148.536 784.345 147.991C785.176 147.446 785.821 146.687 786.28 145.712C786.767 144.737 787.011 143.605 787.011 142.315C787.011 140.968 786.624 139.893 785.85 139.09C785.076 138.259 783.987 137.843 782.582 137.843C781.521 137.843 780.561 138.13 779.701 138.703C778.87 139.248 778.21 140.007 777.723 140.982C777.264 141.957 777.035 143.089 777.035 144.379C777.035 145.726 777.422 146.801 778.196 147.604C778.97 148.407 780.059 148.808 781.464 148.808ZM796.656 155L801.3 131.694H809.427L804.783 155H796.656ZM806.503 129.114C805.07 129.114 803.923 128.727 803.063 127.953C802.232 127.15 801.816 126.19 801.816 125.072C801.816 123.753 802.289 122.65 803.235 121.761C804.21 120.872 805.486 120.428 807.062 120.428C808.496 120.428 809.642 120.801 810.502 121.546C811.362 122.291 811.792 123.223 811.792 124.341C811.792 125.746 811.305 126.892 810.33 127.781C809.356 128.67 808.08 129.114 806.503 129.114ZM810.052 155L814.696 131.694H822.436L821.103 138.316L820.329 136.424C821.361 134.561 822.723 133.242 824.414 132.468C826.105 131.694 828.083 131.307 830.348 131.307L828.929 138.66C828.585 138.603 828.27 138.574 827.983 138.574C827.696 138.545 827.395 138.531 827.08 138.531C825.303 138.531 823.841 138.961 822.694 139.821C821.576 140.652 820.831 142.043 820.458 143.992L818.222 155H810.052ZM839.443 155.387C837.781 155.387 836.19 154.971 834.67 154.14C833.151 153.309 831.918 152.105 830.972 150.528C830.055 148.951 829.596 147.031 829.596 144.766C829.596 142.817 829.926 141.025 830.585 139.391C831.245 137.757 832.148 136.338 833.294 135.134C834.47 133.93 835.817 132.998 837.336 132.339C838.884 131.651 840.518 131.307 842.238 131.307C844.13 131.307 845.75 131.68 847.097 132.425C848.473 133.142 849.477 134.317 850.107 135.951C850.738 137.556 850.881 139.735 850.537 142.487C850.279 145.096 849.663 147.375 848.688 149.324C847.714 151.273 846.452 152.778 844.904 153.839C843.356 154.871 841.536 155.387 839.443 155.387ZM842.281 148.808C843.371 148.808 844.331 148.536 845.162 147.991C845.994 147.446 846.639 146.687 847.097 145.712C847.585 144.737 847.828 143.605 847.828 142.315C847.828 140.968 847.441 139.893 846.667 139.09C845.893 138.259 844.804 137.843 843.399 137.843C842.339 137.843 841.378 138.13 840.518 138.703C839.687 139.248 839.028 140.007 838.54 140.982C838.082 141.957 837.852 143.089 837.852 144.379C837.852 145.726 838.239 146.801 839.013 147.604C839.787 148.407 840.877 148.808 842.281 148.808ZM845.721 155L846.538 151.087L848.086 143.39L849.118 135.693L849.935 131.694H858.105L853.461 155H845.721ZM880.351 155.387C878.287 155.387 876.337 155.172 874.503 154.742C872.668 154.283 871.249 153.739 870.246 153.108L873.213 147.389C874.302 148.077 875.578 148.607 877.04 148.98C878.502 149.353 879.921 149.539 881.297 149.539C882.644 149.539 883.604 149.396 884.178 149.109C884.751 148.794 885.038 148.378 885.038 147.862C885.038 147.403 884.737 147.074 884.135 146.873C883.561 146.644 882.816 146.457 881.899 146.314C880.981 146.171 880.007 145.984 878.975 145.755C877.971 145.526 877.011 145.196 876.094 144.766C875.176 144.336 874.417 143.734 873.815 142.96C873.241 142.157 872.955 141.097 872.955 139.778C872.955 137.915 873.499 136.352 874.589 135.091C875.678 133.83 877.154 132.884 879.018 132.253C880.91 131.622 883.031 131.307 885.382 131.307C887.044 131.307 888.65 131.465 890.198 131.78C891.746 132.095 893.093 132.554 894.24 133.156L891.359 138.875C890.212 138.187 889.037 137.728 887.833 137.499C886.629 137.241 885.496 137.112 884.436 137.112C883.088 137.112 882.128 137.284 881.555 137.628C880.981 137.972 880.695 138.388 880.695 138.875C880.695 139.305 880.981 139.649 881.555 139.907C882.157 140.136 882.902 140.337 883.791 140.509C884.708 140.652 885.683 140.839 886.715 141.068C887.747 141.269 888.707 141.584 889.596 142.014C890.513 142.444 891.258 143.046 891.832 143.82C892.434 144.594 892.735 145.64 892.735 146.959C892.735 148.794 892.176 150.342 891.058 151.603C889.968 152.864 888.492 153.81 886.629 154.441C884.765 155.072 882.673 155.387 880.351 155.387ZM904.769 155.387C902.877 155.387 901.229 154.986 899.824 154.183C898.448 153.352 897.474 152.133 896.9 150.528C896.327 148.923 896.27 146.93 896.728 144.551L899.308 131.694H907.478L905.07 143.777C904.755 145.268 904.841 146.414 905.328 147.217C905.844 148.02 906.747 148.421 908.037 148.421C909.413 148.421 910.56 148.005 911.477 147.174C912.423 146.314 913.068 144.995 913.412 143.218L915.734 131.694H923.904L919.26 155H911.52L912.853 148.421L913.885 150.313C912.767 152.062 911.391 153.352 909.757 154.183C908.152 154.986 906.489 155.387 904.769 155.387ZM935.144 155.387C933.481 155.387 931.89 154.971 930.371 154.14C928.851 153.309 927.619 152.105 926.673 150.528C925.755 148.951 925.297 147.031 925.297 144.766C925.297 142.817 925.626 141.025 926.286 139.391C926.945 137.757 927.848 136.338 928.995 135.134C930.17 133.93 931.517 132.998 933.037 132.339C934.585 131.651 936.219 131.307 937.939 131.307C939.831 131.307 941.45 131.68 942.798 132.425C944.174 133.142 945.177 134.317 945.808 135.951C946.438 137.556 946.582 139.735 946.238 142.487C945.98 145.096 945.363 147.375 944.389 149.324C943.414 151.273 942.153 152.778 940.605 153.839C939.057 154.871 937.236 155.387 935.144 155.387ZM937.982 148.808C939.071 148.808 940.031 148.536 940.863 147.991C941.694 147.446 942.339 146.687 942.798 145.712C943.285 144.737 943.529 143.605 943.529 142.315C943.529 140.968 943.142 139.893 942.368 139.09C941.594 138.259 940.504 137.843 939.1 137.843C938.039 137.843 937.079 138.13 936.219 138.703C935.387 139.248 934.728 140.007 934.241 140.982C933.782 141.957 933.553 143.089 933.553 144.379C933.553 145.726 933.94 146.801 934.714 147.604C935.488 148.407 936.577 148.808 937.982 148.808ZM941.422 155L942.239 151.087L943.787 143.39L944.819 135.693L945.636 131.694H953.806L949.162 155H941.422ZM963.537 155.387C961.473 155.387 959.524 155.172 957.689 154.742C955.854 154.283 954.435 153.739 953.432 153.108L956.399 147.389C957.488 148.077 958.764 148.607 960.226 148.98C961.688 149.353 963.107 149.539 964.483 149.539C965.83 149.539 966.791 149.396 967.364 149.109C967.937 148.794 968.224 148.378 968.224 147.862C968.224 147.403 967.923 147.074 967.321 146.873C966.748 146.644 966.002 146.457 965.085 146.314C964.168 146.171 963.193 145.984 962.161 145.755C961.158 145.526 960.197 145.196 959.28 144.766C958.363 144.336 957.603 143.734 957.001 142.96C956.428 142.157 956.141 141.097 956.141 139.778C956.141 137.915 956.686 136.352 957.775 135.091C958.864 133.83 960.341 132.884 962.204 132.253C964.096 131.622 966.217 131.307 968.568 131.307C970.231 131.307 971.836 131.465 973.384 131.78C974.932 132.095 976.279 132.554 977.426 133.156L974.545 138.875C973.398 138.187 972.223 137.728 971.019 137.499C969.815 137.241 968.683 137.112 967.622 137.112C966.275 137.112 965.314 137.284 964.741 137.628C964.168 137.972 963.881 138.388 963.881 138.875C963.881 139.305 964.168 139.649 964.741 139.907C965.343 140.136 966.088 140.337 966.977 140.509C967.894 140.652 968.869 140.839 969.901 141.068C970.933 141.269 971.893 141.584 972.782 142.014C973.699 142.444 974.445 143.046 975.018 143.82C975.62 144.594 975.921 145.64 975.921 146.959C975.921 148.794 975.362 150.342 974.244 151.603C973.155 152.864 971.678 153.81 969.815 154.441C967.952 155.072 965.859 155.387 963.537 155.387ZM600.301 207L604.945 183.694H612.685L611.352 190.316L610.578 188.424C611.61 186.561 612.972 185.242 614.663 184.468C616.354 183.694 618.332 183.307 620.597 183.307L619.178 190.66C618.834 190.603 618.519 190.574 618.232 190.574C617.945 190.545 617.644 190.531 617.329 190.531C615.552 190.531 614.09 190.961 612.943 191.821C611.825 192.652 611.08 194.043 610.707 195.992L608.471 207H600.301ZM632.23 207.387C629.736 207.387 627.557 206.957 625.694 206.097C623.859 205.208 622.426 203.976 621.394 202.399C620.362 200.794 619.846 198.916 619.846 196.766C619.846 194.186 620.433 191.893 621.609 189.886C622.784 187.851 624.432 186.245 626.554 185.07C628.675 183.895 631.14 183.307 633.95 183.307C636.329 183.307 638.364 183.737 640.056 184.597C641.776 185.457 643.094 186.661 644.012 188.209C644.958 189.728 645.431 191.506 645.431 193.541C645.431 194.229 645.388 194.888 645.302 195.519C645.216 196.15 645.101 196.766 644.958 197.368H626.253L627.027 193.068H641.174L637.777 194.315C638.006 193.197 637.963 192.265 637.648 191.52C637.361 190.746 636.859 190.158 636.143 189.757C635.455 189.327 634.595 189.112 633.563 189.112C632.244 189.112 631.155 189.442 630.295 190.101C629.463 190.76 628.833 191.663 628.403 192.81C628.001 193.928 627.801 195.146 627.801 196.465C627.801 198.07 628.245 199.26 629.134 200.034C630.022 200.779 631.355 201.152 633.133 201.152C634.165 201.152 635.168 200.994 636.143 200.679C637.146 200.335 638.02 199.862 638.766 199.26L642.163 204.377C640.701 205.466 639.11 206.24 637.39 206.699C635.698 207.158 633.978 207.387 632.23 207.387ZM659.521 207.387C657.027 207.387 654.863 206.943 653.028 206.054C651.194 205.165 649.76 203.933 648.728 202.356C647.725 200.751 647.223 198.887 647.223 196.766C647.223 194.186 647.84 191.893 649.072 189.886C650.305 187.851 652.011 186.245 654.189 185.07C656.368 183.895 658.862 183.307 661.671 183.307C664.309 183.307 666.588 183.866 668.508 184.984C670.458 186.102 671.862 187.65 672.722 189.628L665.756 192.939C665.326 191.85 664.71 191.061 663.907 190.574C663.133 190.087 662.245 189.843 661.241 189.843C660.152 189.843 659.163 190.13 658.274 190.703C657.414 191.248 656.741 191.993 656.253 192.939C655.766 193.885 655.522 195.003 655.522 196.293C655.522 197.64 655.909 198.73 656.683 199.561C657.457 200.392 658.59 200.808 660.08 200.808C661.141 200.808 662.087 200.579 662.918 200.12C663.778 199.633 664.509 198.844 665.111 197.755L671.088 201.367C669.97 203.259 668.394 204.735 666.358 205.796C664.352 206.857 662.073 207.387 659.521 207.387ZM685.266 207.387C682.772 207.387 680.593 206.957 678.73 206.097C676.895 205.208 675.462 203.976 674.43 202.399C673.398 200.794 672.882 198.916 672.882 196.766C672.882 194.186 673.469 191.893 674.645 189.886C675.82 187.851 677.468 186.245 679.59 185.07C681.711 183.895 684.176 183.307 686.986 183.307C689.365 183.307 691.4 183.737 693.092 184.597C694.812 185.457 696.13 186.661 697.048 188.209C697.994 189.728 698.467 191.506 698.467 193.541C698.467 194.229 698.424 194.888 698.338 195.519C698.252 196.15 698.137 196.766 697.994 197.368H679.289L680.063 193.068H694.21L690.813 194.315C691.042 193.197 690.999 192.265 690.684 191.52C690.397 190.746 689.895 190.158 689.179 189.757C688.491 189.327 687.631 189.112 686.599 189.112C685.28 189.112 684.191 189.442 683.331 190.101C682.499 190.76 681.869 191.663 681.439 192.81C681.037 193.928 680.837 195.146 680.837 196.465C680.837 198.07 681.281 199.26 682.17 200.034C683.058 200.779 684.391 201.152 686.169 201.152C687.201 201.152 688.204 200.994 689.179 200.679C690.182 200.335 691.056 199.862 691.802 199.26L695.199 204.377C693.737 205.466 692.146 206.24 690.426 206.699C688.734 207.158 687.014 207.387 685.266 207.387ZM699.529 207L704.173 183.694H712.3L707.656 207H699.529ZM709.376 181.114C707.942 181.114 706.796 180.727 705.936 179.953C705.104 179.15 704.689 178.19 704.689 177.072C704.689 175.753 705.162 174.65 706.108 173.761C707.082 172.872 708.358 172.428 709.935 172.428C711.368 172.428 712.515 172.801 713.375 173.546C714.235 174.291 714.665 175.223 714.665 176.341C714.665 177.746 714.177 178.892 713.203 179.781C712.228 180.67 710.952 181.114 709.376 181.114ZM723.244 207.387C721.438 207.387 719.89 207.043 718.6 206.355C717.31 205.638 716.393 204.606 715.848 203.259C715.303 201.883 715.217 200.249 715.59 198.357L719.546 178.491H727.716L723.76 198.314C723.617 199.203 723.717 199.891 724.061 200.378C724.405 200.837 724.993 201.066 725.824 201.066C726.254 201.066 726.67 201.009 727.071 200.894C727.472 200.779 727.874 200.607 728.275 200.378L729.307 206.011C728.447 206.498 727.487 206.842 726.426 207.043C725.394 207.272 724.333 207.387 723.244 207.387ZM713.698 190.66L714.945 184.554H731.801L730.597 190.66H713.698ZM742.106 207.387C740.443 207.387 738.852 206.971 737.333 206.14C735.813 205.309 734.581 204.105 733.635 202.528C732.717 200.951 732.259 199.031 732.259 196.766C732.259 194.817 732.588 193.025 733.248 191.391C733.907 189.757 734.81 188.338 735.957 187.134C737.132 185.93 738.479 184.998 739.999 184.339C741.547 183.651 743.181 183.307 744.901 183.307C746.793 183.307 748.412 183.68 749.76 184.425C751.136 185.142 752.139 186.317 752.77 187.951C753.4 189.556 753.544 191.735 753.2 194.487C752.942 197.096 752.325 199.375 751.351 201.324C750.376 203.273 749.115 204.778 747.567 205.839C746.019 206.871 744.198 207.387 742.106 207.387ZM744.944 200.808C746.033 200.808 746.993 200.536 747.825 199.991C748.656 199.446 749.301 198.687 749.76 197.712C750.247 196.737 750.491 195.605 750.491 194.315C750.491 192.968 750.104 191.893 749.33 191.09C748.556 190.259 747.466 189.843 746.062 189.843C745.001 189.843 744.041 190.13 743.181 190.703C742.349 191.248 741.69 192.007 741.203 192.982C740.744 193.957 740.515 195.089 740.515 196.379C740.515 197.726 740.902 198.801 741.676 199.604C742.45 200.407 743.539 200.808 744.944 200.808ZM748.384 207L749.201 203.087L750.749 195.39L751.781 187.693L752.598 183.694H760.768L756.124 207H748.384ZM770.499 207.387C768.435 207.387 766.486 207.172 764.651 206.742C762.816 206.283 761.397 205.739 760.394 205.108L763.361 199.389C764.45 200.077 765.726 200.607 767.188 200.98C768.65 201.353 770.069 201.539 771.445 201.539C772.792 201.539 773.753 201.396 774.326 201.109C774.899 200.794 775.186 200.378 775.186 199.862C775.186 199.403 774.885 199.074 774.283 198.873C773.71 198.644 772.964 198.457 772.047 198.314C771.13 198.171 770.155 197.984 769.123 197.755C768.12 197.526 767.159 197.196 766.242 196.766C765.325 196.336 764.565 195.734 763.963 194.96C763.39 194.157 763.103 193.097 763.103 191.778C763.103 189.915 763.648 188.352 764.737 187.091C765.826 185.83 767.303 184.884 769.166 184.253C771.058 183.622 773.179 183.307 775.53 183.307C777.193 183.307 778.798 183.465 780.346 183.78C781.894 184.095 783.241 184.554 784.388 185.156L781.507 190.875C780.36 190.187 779.185 189.728 777.981 189.499C776.777 189.241 775.645 189.112 774.584 189.112C773.237 189.112 772.276 189.284 771.703 189.628C771.13 189.972 770.843 190.388 770.843 190.875C770.843 191.305 771.13 191.649 771.703 191.907C772.305 192.136 773.05 192.337 773.939 192.509C774.856 192.652 775.831 192.839 776.863 193.068C777.895 193.269 778.855 193.584 779.744 194.014C780.661 194.444 781.407 195.046 781.98 195.82C782.582 196.594 782.883 197.64 782.883 198.959C782.883 200.794 782.324 202.342 781.206 203.603C780.117 204.864 778.64 205.81 776.777 206.441C774.914 207.072 772.821 207.387 770.499 207.387ZM788.941 207.387C787.565 207.387 786.447 206.971 785.587 206.14C784.727 205.28 784.297 204.205 784.297 202.915C784.297 201.338 784.813 200.077 785.845 199.131C786.877 198.185 788.109 197.712 789.543 197.712C790.919 197.712 792.022 198.128 792.854 198.959C793.714 199.79 794.144 200.865 794.144 202.184C794.144 203.216 793.9 204.119 793.413 204.893C792.954 205.667 792.323 206.283 791.521 206.742C790.747 207.172 789.887 207.387 788.941 207.387Z" fill="#FAF8F0"/>
<path d="M699.605 160.375H764.311V162.525H699.605V160.375ZM775.994 160.375H858.42V162.525H775.994V160.375Z" fill="#FAF8F0"/>
<mask id="path-8-outside-1_2060_158" maskUnits="userSpaceOnUse" x="58" y="138" width="74" height="71" fill="black">
<rect fill="white" x="58" y="138" width="74" height="71"/>
<path d="M90.4824 207.576C83.8904 207.576 78.2584 206.424 73.5864 204.12C68.9144 201.752 65.3624 198.488 62.9304 194.328C60.5624 190.104 59.3784 185.208 59.3784 179.64C59.3784 174.136 60.3064 168.952 62.1624 164.088C64.0184 159.224 66.7064 154.936 70.2264 151.224C73.8104 147.448 78.0984 144.504 83.0904 142.392C88.0824 140.28 93.6824 139.224 99.8904 139.224C106.546 139.224 112.178 140.408 116.786 142.776C121.458 145.08 124.978 148.344 127.346 152.568C129.778 156.728 130.994 161.592 130.994 167.16C130.994 172.664 130.066 177.848 128.21 182.712C126.354 187.576 123.634 191.896 120.05 195.672C116.53 199.384 112.274 202.296 107.282 204.408C102.29 206.52 96.6904 207.576 90.4824 207.576ZM91.1544 201.24C96.1464 201.24 100.658 200.376 104.69 198.648C108.722 196.856 112.178 194.392 115.058 191.256C117.938 188.12 120.146 184.536 121.682 180.504C123.218 176.408 123.986 172.056 123.986 167.448C123.986 163.096 123.026 159.288 121.106 156.024C119.25 152.76 116.498 150.2 112.85 148.344C109.202 146.488 104.658 145.56 99.2184 145.56C94.2264 145.56 89.7144 146.456 85.6824 148.248C81.6504 149.976 78.1944 152.408 75.3144 155.544C72.4984 158.68 70.2904 162.296 68.6904 166.392C67.1544 170.424 66.3864 174.744 66.3864 179.352C66.3864 183.64 67.3144 187.448 69.1704 190.776C71.0904 194.04 73.8744 196.6 77.5224 198.456C81.1704 200.312 85.7144 201.24 91.1544 201.24Z"/>
</mask>
<path d="M90.4824 207.576C83.8904 207.576 78.2584 206.424 73.5864 204.12C68.9144 201.752 65.3624 198.488 62.9304 194.328C60.5624 190.104 59.3784 185.208 59.3784 179.64C59.3784 174.136 60.3064 168.952 62.1624 164.088C64.0184 159.224 66.7064 154.936 70.2264 151.224C73.8104 147.448 78.0984 144.504 83.0904 142.392C88.0824 140.28 93.6824 139.224 99.8904 139.224C106.546 139.224 112.178 140.408 116.786 142.776C121.458 145.08 124.978 148.344 127.346 152.568C129.778 156.728 130.994 161.592 130.994 167.16C130.994 172.664 130.066 177.848 128.21 182.712C126.354 187.576 123.634 191.896 120.05 195.672C116.53 199.384 112.274 202.296 107.282 204.408C102.29 206.52 96.6904 207.576 90.4824 207.576ZM91.1544 201.24C96.1464 201.24 100.658 200.376 104.69 198.648C108.722 196.856 112.178 194.392 115.058 191.256C117.938 188.12 120.146 184.536 121.682 180.504C123.218 176.408 123.986 172.056 123.986 167.448C123.986 163.096 123.026 159.288 121.106 156.024C119.25 152.76 116.498 150.2 112.85 148.344C109.202 146.488 104.658 145.56 99.2184 145.56C94.2264 145.56 89.7144 146.456 85.6824 148.248C81.6504 149.976 78.1944 152.408 75.3144 155.544C72.4984 158.68 70.2904 162.296 68.6904 166.392C67.1544 170.424 66.3864 174.744 66.3864 179.352C66.3864 183.64 67.3144 187.448 69.1704 190.776C71.0904 194.04 73.8744 196.6 77.5224 198.456C81.1704 200.312 85.7144 201.24 91.1544 201.24Z" fill="#FAF8F0"/>
<path d="M73.5864 204.12L73.1343 205.012L73.1441 205.017L73.5864 204.12ZM62.9304 194.328L62.0581 194.817L62.0625 194.825L62.0671 194.833L62.9304 194.328ZM62.1624 164.088L61.2281 163.731L61.2281 163.731L62.1624 164.088ZM70.2264 151.224L69.5011 150.536L69.5008 150.536L70.2264 151.224ZM116.786 142.776L116.329 143.665L116.337 143.669L116.344 143.673L116.786 142.776ZM127.346 152.568L126.474 153.057L126.479 153.065L126.483 153.073L127.346 152.568ZM128.21 182.712L127.276 182.355L127.276 182.355L128.21 182.712ZM120.05 195.672L119.325 194.984L119.325 194.984L120.05 195.672ZM107.282 204.408L107.672 205.329L107.282 204.408ZM104.69 198.648L105.084 199.567L105.097 199.562L104.69 198.648ZM115.058 191.256L115.795 191.932L115.795 191.932L115.058 191.256ZM121.682 180.504L122.617 180.86L122.619 180.855L121.682 180.504ZM121.106 156.024L120.237 156.518L120.241 156.525L120.244 156.531L121.106 156.024ZM112.85 148.344L112.397 149.235L112.397 149.235L112.85 148.344ZM85.6824 148.248L86.0763 149.167L86.0885 149.162L85.6824 148.248ZM75.3144 155.544L74.5778 154.868L74.5703 154.876L75.3144 155.544ZM68.6904 166.392L67.7589 166.028L67.7559 166.036L68.6904 166.392ZM69.1704 190.776L68.297 191.263L68.3026 191.273L68.3084 191.283L69.1704 190.776ZM77.5224 198.456L77.9758 197.565L77.9758 197.565L77.5224 198.456ZM90.4824 207.576V206.576C84.0042 206.576 78.5315 205.444 74.0287 203.223L73.5864 204.12L73.1441 205.017C77.9852 207.404 83.7766 208.576 90.4824 208.576V207.576ZM73.5864 204.12L74.0385 203.228C69.5224 200.939 66.1202 197.803 63.7937 193.823L62.9304 194.328L62.0671 194.833C64.6045 199.173 68.3064 202.565 73.1343 205.012L73.5864 204.12ZM62.9304 194.328L63.8027 193.839C61.5302 189.785 60.3784 185.063 60.3784 179.64H59.3784H58.3784C58.3784 185.353 59.5945 190.423 62.0581 194.817L62.9304 194.328ZM59.3784 179.64H60.3784C60.3784 174.251 61.2866 169.188 63.0967 164.445L62.1624 164.088L61.2281 163.731C59.3262 168.716 58.3784 174.021 58.3784 179.64H59.3784ZM62.1624 164.088L63.0967 164.445C64.9065 159.701 67.5244 155.527 70.952 151.912L70.2264 151.224L69.5008 150.536C65.8884 154.345 63.1302 158.747 61.2281 163.731L62.1624 164.088ZM70.2264 151.224L70.9517 151.912C74.4371 148.24 78.6094 145.374 83.48 143.313L83.0904 142.392L82.7007 141.471C77.5874 143.634 73.1837 146.656 69.5011 150.536L70.2264 151.224ZM83.0904 142.392L83.48 143.313C88.3321 141.26 93.7969 140.224 99.8904 140.224V139.224V138.224C93.5678 138.224 87.8326 139.3 82.7007 141.471L83.0904 142.392ZM99.8904 139.224V140.224C106.431 140.224 111.897 141.388 116.329 143.665L116.786 142.776L117.243 141.887C112.46 139.428 106.661 138.224 99.8904 138.224V139.224ZM116.786 142.776L116.344 143.673C120.849 145.895 124.213 149.023 126.474 153.057L127.346 152.568L128.219 152.079C125.744 147.665 122.067 144.265 117.229 141.879L116.786 142.776ZM127.346 152.568L126.483 153.073C128.812 157.057 129.994 161.741 129.994 167.16H130.994H131.994C131.994 161.443 130.744 156.399 128.21 152.063L127.346 152.568ZM130.994 167.16H129.994C129.994 172.549 129.086 177.612 127.276 182.355L128.21 182.712L129.145 183.069C131.047 178.084 131.994 172.779 131.994 167.16H130.994ZM128.21 182.712L127.276 182.355C125.467 187.096 122.818 191.303 119.325 194.984L120.05 195.672L120.776 196.36C124.451 192.489 127.242 188.056 129.145 183.069L128.21 182.712ZM120.05 195.672L119.325 194.984C115.905 198.59 111.766 201.425 106.893 203.487L107.282 204.408L107.672 205.329C112.783 203.167 117.156 200.178 120.776 196.36L120.05 195.672ZM107.282 204.408L106.893 203.487C102.041 205.54 96.5758 206.576 90.4824 206.576V207.576V208.576C96.8049 208.576 102.54 207.5 107.672 205.329L107.282 204.408ZM91.1544 201.24V202.24C96.2632 202.24 100.912 201.355 105.084 199.567L104.69 198.648L104.296 197.729C100.405 199.397 96.0296 200.24 91.1544 200.24V201.24ZM104.69 198.648L105.097 199.562C109.249 197.716 112.819 195.173 115.795 191.932L115.058 191.256L114.322 190.58C111.538 193.611 108.196 195.996 104.284 197.734L104.69 198.648ZM115.058 191.256L115.795 191.932C118.762 188.702 121.036 185.009 122.617 180.86L121.682 180.504L120.748 180.148C119.256 184.063 117.115 187.538 114.322 190.58L115.058 191.256ZM121.682 180.504L122.619 180.855C124.199 176.641 124.986 172.169 124.986 167.448H123.986H122.986C122.986 171.943 122.238 176.175 120.746 180.153L121.682 180.504ZM123.986 167.448H124.986C124.986 162.945 123.991 158.956 121.968 155.517L121.106 156.024L120.244 156.531C122.061 159.62 122.986 163.247 122.986 167.448H123.986ZM121.106 156.024L121.976 155.53C120.014 152.08 117.11 149.389 113.304 147.453L112.85 148.344L112.397 149.235C115.887 151.011 118.487 153.44 120.237 156.518L121.106 156.024ZM112.85 148.344L113.304 147.453C109.477 145.506 104.766 144.56 99.2184 144.56V145.56V146.56C104.55 146.56 108.928 147.47 112.397 149.235L112.85 148.344ZM99.2184 145.56V144.56C94.1048 144.56 89.4519 145.478 85.2762 147.334L85.6824 148.248L86.0885 149.162C89.9769 147.434 94.3479 146.56 99.2184 146.56V145.56ZM85.6824 148.248L85.2885 147.329C81.1304 149.111 77.5565 151.624 74.5778 154.868L75.3144 155.544L76.0509 156.22C78.8322 153.192 82.1703 150.841 86.0763 149.167L85.6824 148.248ZM75.3144 155.544L74.5703 154.876C71.6706 158.105 69.4007 161.825 67.7589 166.028L68.6904 166.392L69.6218 166.756C71.1801 162.767 73.3261 159.255 76.0584 156.212L75.3144 155.544ZM68.6904 166.392L67.7559 166.036C66.1737 170.189 65.3864 174.631 65.3864 179.352H66.3864H67.3864C67.3864 174.857 68.135 170.659 69.6249 166.748L68.6904 166.392ZM66.3864 179.352H65.3864C65.3864 183.789 66.348 187.768 68.297 191.263L69.1704 190.776L70.0437 190.289C68.2808 187.128 67.3864 183.491 67.3864 179.352H66.3864ZM69.1704 190.776L68.3084 191.283C70.333 194.725 73.2652 197.412 77.0689 199.347L77.5224 198.456L77.9758 197.565C74.4835 195.788 71.8478 193.355 70.0323 190.269L69.1704 190.776ZM77.5224 198.456L77.0689 199.347C80.8958 201.294 85.6065 202.24 91.1544 202.24V201.24V200.24C85.8223 200.24 81.4449 199.33 77.9758 197.565L77.5224 198.456Z" fill="black" mask="url(#path-8-outside-1_2060_158)"/>
<path d="M113.584 81.9C113.584 87.7 116.05 90.6 120.984 90.6C126.384 90.6 130.017 88.7333 131.884 85C132.55 83.6667 132.884 81.9667 132.884 79.9C132.884 77.7667 132.384 75.8 131.384 74C129.717 71.1333 126.85 67.9667 122.784 64.5C116.05 58.7667 112.684 52.8333 112.684 46.7C112.684 40.5 114.617 35.7333 118.484 32.4C122.35 29.0667 126.784 27.4 131.784 27.4C136.784 27.4 140.75 28.6667 143.684 31.2C146.617 33.7333 148.084 37.5333 148.084 42.6C148.084 45.9333 146.95 48.8333 144.684 51.3C142.484 53.7667 139.55 55.3 135.884 55.9C137.55 57.3 139.217 58.7333 140.884 60.2C142.484 61.6667 143.95 63.2667 145.284 65C148.217 68.9333 149.684 73.6333 149.684 79.1C149.684 82.9 148.784 86.3333 146.984 89.4C145.25 92.4667 142.95 95.0667 140.084 97.2C137.284 99.2667 134.117 100.867 130.584 102C127.05 103.133 123.75 103.7 120.684 103.7C114.15 103.7 109.084 102.2 105.484 99.2C101.284 95.8 99.1836 90.9 99.1836 84.5C99.1836 80.3 100.55 76.2333 103.284 72.3C106.017 68.3667 108.917 66.4 111.984 66.4C114.384 66.4 115.584 67.1333 115.584 68.6C115.584 70.7333 115.25 72.8667 114.584 75C113.917 77.0667 113.584 79.3667 113.584 81.9ZM132.984 53.5C136.784 49.7 138.684 45.7333 138.684 41.6C138.684 40.3333 138.017 39.2667 136.684 38.4C135.217 37.6 133.684 37.2 132.084 37.2C128.484 37.2 125.884 38.3667 124.284 40.7C125.084 43.5667 126.25 46 127.784 48C129.384 50 131.117 51.8333 132.984 53.5ZM180.015 92.1C185.215 92.1 190.248 90.0333 195.115 85.9C196.915 84.3667 198.382 82.9667 199.515 81.7C200.648 80.3667 201.515 79.7 202.115 79.7C203.048 79.7 203.515 80.6333 203.515 82.5C203.515 84.3667 203.015 86.4667 202.015 88.8C201.015 91.0667 199.348 93.3 197.015 95.5C191.282 100.9 183.415 103.6 173.415 103.6C165.482 103.6 160.082 100.733 157.215 95C156.215 93 155.715 90.1333 155.715 86.4C155.715 82.6667 156.448 78.8 157.915 74.8C159.382 70.7333 161.315 67.2333 163.715 64.3C166.182 61.3667 169.015 59.1 172.215 57.5C175.415 55.8333 178.815 55 182.415 55C186.082 55 188.882 55.9 190.815 57.7C192.815 59.5 193.815 61.8333 193.815 64.7C193.815 67.5667 193.082 69.9333 191.615 71.8C190.215 73.6 188.382 75.1333 186.115 76.4C183.848 77.6 181.315 78.7 178.515 79.7C175.782 80.6333 173.082 81.7 170.415 82.9V85.4C170.482 87.8 171.482 89.5 173.415 90.5C175.348 91.5 177.548 92.0333 180.015 92.1ZM178.315 63.9C174.848 63.9 172.448 67.9333 171.115 76C172.515 75.0667 173.815 74.2333 175.015 73.5C176.282 72.7667 177.382 72.0667 178.315 71.4C180.315 69.9333 181.348 68.2667 181.415 66.4C181.415 64.7333 180.382 63.9 178.315 63.9ZM229.612 60.8C229.612 56.3333 233.078 54.1 240.012 54.1C241.745 54.1 242.812 54.6667 243.212 55.8C243.678 56.9333 243.912 58.6667 243.912 61C243.912 64.2667 243.178 69.3333 241.712 76.2C240.245 83.0667 239.545 87.7 239.612 90.1C239.612 91.2333 239.978 91.8 240.712 91.8C241.712 91.8 242.945 91.1667 244.412 89.9C245.878 88.6333 247.345 87.2667 248.812 85.8C250.278 84.2667 251.612 82.8667 252.812 81.6C254.078 80.3333 254.945 79.7 255.412 79.7C256.345 79.7 256.812 80.8333 256.812 83.1C256.812 87.7667 254.512 92.2667 249.912 96.6C242.178 101.133 237.278 103.4 235.212 103.4C235.012 103.4 234.845 103.367 234.712 103.3C232.178 103.3 230.378 102.467 229.312 100.8C228.312 99.1333 227.678 97.0333 227.412 94.5C226.078 96.9667 224.245 99.1 221.912 100.9C219.578 102.633 216.912 103.5 213.912 103.5C208.645 103.5 204.578 102.5 201.712 100.5C198.912 98.5 197.512 95.5333 197.512 91.6C197.512 89.8667 197.745 88.2667 198.212 86.8C198.745 85.3333 199.578 83.5333 200.712 81.4L203.612 56.8C205.678 55.2 208.645 54.4 212.512 54.4C215.578 54.4 217.312 56.4 217.712 60.4C218.045 63.6667 217.878 66.6 217.212 69.2C216.612 71.7333 215.778 74.9667 214.712 78.9C213.645 82.7667 213.112 86.2 213.112 89.2C213.112 91.6 214.612 92.8 217.612 92.8C220.878 92.8 223.712 89.9333 226.112 84.2C227.978 79.8 229.245 74.9 229.912 69.5C229.845 68.9667 229.778 68.3 229.712 67.5C229.712 66.6333 229.678 65.8 229.612 65C229.612 64.2 229.612 63.4 229.612 62.6V60.8ZM274.632 54.6C279.099 54.5333 282.432 55.3667 284.632 57.1C286.832 58.7667 287.932 61.2 287.932 64.4C287.932 67.5333 286.965 70.2333 285.032 72.5C283.165 74.7 280.865 76.2667 278.132 77.2C280.065 79.2 281.799 81.2333 283.332 83.3C284.932 85.3667 285.732 87.5333 285.732 89.8C285.732 94.2667 283.965 97.7333 280.432 100.2C276.899 102.6 271.965 103.8 265.632 103.8C259.365 103.8 254.665 102.567 251.532 100.1C248.399 97.5667 246.832 94.7333 246.832 91.6C246.832 88.4 247.599 85.5 249.132 82.9C250.732 80.3 252.432 79 254.232 79C255.299 79 256.065 79.4 256.532 80.2C256.999 80.9333 257.865 83.1333 259.132 86.8C259.599 88.1333 260.365 89.4 261.432 90.6C263.899 93.3333 267.799 94.7 273.132 94.7C272.332 92.1667 271.032 90 269.232 88.2C267.499 86.3333 265.765 84.5333 264.032 82.8C262.299 81.0667 260.765 79.2333 259.432 77.3C258.099 75.3 257.432 72.9667 257.432 70.3C257.432 65.5 259.232 61.6 262.832 58.6C266.232 55.9333 270.165 54.6 274.632 54.6ZM274.232 73.1C276.899 70.2333 278.232 67.9333 278.232 66.2C278.232 65.4 277.932 64.7 277.332 64.1C276.799 63.4333 275.999 63.1 274.932 63.1C273.865 63.1 272.832 63.2333 271.832 63.5C270.899 63.7667 270.132 63.9667 269.532 64.1C269.532 66.6333 271.099 69.6333 274.232 73.1ZM343.608 70.1C339.741 70.6333 336.541 70.9 334.008 70.9C333.141 70.9 332.708 70.5667 332.708 69.9C332.708 68.3667 333.741 66.7667 335.808 65.1C337.941 63.3667 341.374 61.8667 346.108 60.6C348.241 53 350.674 46.0333 353.408 39.7C346.741 40.0333 341.274 42.2333 337.008 46.3C335.941 47.3667 335.074 48.2 334.408 48.8C333.741 49.4 333.141 49.7 332.608 49.7C332.141 49.7 331.674 49.3 331.208 48.5C330.741 47.7 330.508 46.6333 330.508 45.3C330.574 40.1667 334.041 36 340.908 32.8C347.774 29.6 356.241 28.0333 366.308 28.1L396.308 28.6C398.108 28.6 399.008 29.3 399.008 30.7C399.008 31.1 398.741 31.8333 398.208 32.9C397.674 33.9 397.208 35 396.808 36.2C395.941 38.6 394.074 39.8 391.208 39.8H388.008L374.708 39.7H367.008C366.474 43.5 364.874 49.7 362.208 58.3L380.508 58.6C381.574 58.6 382.108 59.2333 382.108 60.5C382.108 60.9 381.941 61.6 381.608 62.6C381.274 63.6 380.974 64.6333 380.708 65.7C380.174 67.9 379.041 69 377.308 69L362.108 68.3H360.808C360.408 68.3 359.941 68.3333 359.408 68.4C355.941 81.1333 354.208 91.2 354.208 98.6C354.208 102.533 350.374 104.5 342.708 104.5C341.041 104.5 340.041 103.667 339.708 102C339.441 100.267 339.308 98 339.308 95.2C339.308 89.2 340.741 80.8333 343.608 70.1ZM446.435 79.4C447.635 79.4 448.235 80.9333 448.235 84C448.235 85.6667 447.535 87.7 446.135 90.1C444.735 92.4333 442.902 94.6 440.635 96.6C438.435 98.5333 435.968 100.133 433.235 101.4C430.502 102.667 427.835 103.3 425.235 103.3C421.702 103.3 419.335 100.2 418.135 94C416.402 96.8667 414.135 99.2333 411.335 101.1C408.535 102.9 404.768 103.8 400.035 103.8C395.368 103.8 391.602 102.333 388.735 99.4C385.868 96.4667 384.468 92.9 384.535 88.7C384.535 77.3667 388.302 68.4333 395.835 61.9C399.035 59.1667 402.002 57.3667 404.735 56.5C407.535 55.6333 410.468 55.2 413.535 55.2C416.602 55.2 419.102 55.7333 421.035 56.8C421.968 54.8667 423.035 53.9 424.235 53.9C426.568 53.9 428.768 54.9333 430.835 57C432.968 59 434.035 60.9 434.035 62.7C433.102 64.9 431.735 67.5333 429.935 70.6C429.402 73.6667 429.135 77.9667 429.135 83.5C429.135 89.0333 429.835 91.8 431.235 91.8C432.968 91.8 437.168 88.3333 443.835 81.4C445.035 80.0667 445.902 79.4 446.435 79.4ZM399.235 85.4C399.235 90.5333 401.135 93.1 404.935 93.1C409.002 93.0333 412.368 90.8667 415.035 86.6C415.968 85.1333 416.735 83.3333 417.335 81.2C417.335 73.7333 418.002 67.3333 419.335 62C413.935 63.0667 409.235 65.6667 405.235 69.8C401.235 73.9333 399.235 79.1333 399.235 85.4ZM459.038 59C459.038 63.4667 458.238 68.5333 456.638 74.2C456.772 76.3333 456.838 78.4 456.838 80.4C456.838 82.4 456.972 84.1333 457.238 85.6C458.238 88.2667 459.505 89.9 461.038 90.5C462.372 90.5 463.838 89.3667 465.438 87.1C467.038 84.7667 468.672 82 470.338 78.8C469.538 75.7333 469.138 72.8333 469.138 70.1C469.138 65.3 469.872 61.8 471.338 59.6C473.138 56.8 475.872 55.4 479.538 55.4C483.205 55.4 485.638 56.8 486.838 59.6C487.305 60.6667 487.538 61.8667 487.538 63.2C487.538 65.6 486.938 68.0667 485.738 70.6C484.538 73.0667 482.605 76.3333 479.938 80.4C481.138 83.9333 482.938 85.7 485.338 85.7C488.272 85.6333 490.805 84.6 492.938 82.6C493.738 81.8 494.405 81.1 494.938 80.5C495.538 79.9 496.138 79.6 496.738 79.6C497.672 79.6 498.138 80.7 498.138 82.9C498.138 87.0333 496.938 90.0667 494.538 92C492.205 93.8667 489.238 94.8 485.638 94.8C480.905 94.8 477.138 92.7333 474.338 88.6C466.538 98.7333 460.005 103.8 454.738 103.8C452.672 103.8 450.638 100.867 448.638 95C446.638 89.1333 445.105 81.2 444.038 71.2C443.238 64.8667 443.705 60.3333 445.438 57.6C446.905 55.4667 449.772 54.4 454.038 54.4C455.638 54.4 456.872 54.9 457.738 55.9C458.605 56.8333 459.038 57.8667 459.038 59ZM534.029 94.5C528.762 100.7 522.429 103.8 515.029 103.8C507.696 103.8 502.196 101.933 498.529 98.2C494.862 94.4 493.062 89.7 493.129 84.1C493.062 76.1667 495.562 69.3333 500.629 63.6C505.696 57.8667 512.329 55 520.529 55C524.262 55 527.262 55.4667 529.529 56.4C533.462 58 535.429 59.5 535.429 60.9C535.429 61.9667 532.662 62.5333 527.129 62.6C521.662 62.6 517.062 64.5 513.329 68.3C509.662 72.0333 507.829 76.7667 507.829 82.5C507.829 85.5 508.696 88.0333 510.429 90.1C512.229 92.1 514.729 93.1 517.929 93.1C521.196 93.1 523.896 92.4333 526.029 91.1C521.296 87.9 518.929 83.2667 518.929 77.2C518.862 74 519.996 71.1 522.329 68.5C524.729 65.8333 527.762 64.5 531.429 64.5C535.162 64.4333 537.829 65.4333 539.429 67.5C541.029 69.5667 541.829 72.2333 541.829 75.5C541.829 78.7 541.062 82.1 539.529 85.7H540.129C543.062 85.6333 545.596 84.6 547.729 82.6C548.529 81.8 549.196 81.1 549.729 80.5C550.329 79.9 550.929 79.6 551.529 79.6C552.462 79.6 552.929 80.7 552.929 82.9C552.929 86.9667 551.729 90.0333 549.329 92.1C546.929 94.1 544.262 95.1 541.329 95.1C538.462 95.1 536.029 94.9 534.029 94.5ZM533.129 82.9C534.262 80.5 534.829 78.1667 534.829 75.9C534.829 73.6333 534.096 72.5 532.629 72.5C532.029 72.5 531.529 72.9333 531.129 73.8C530.729 74.6667 530.529 75.5 530.529 76.3C530.529 78.9667 531.396 81.1667 533.129 82.9ZM562.526 86.2L563.126 98.4C563.126 100 562.292 101.433 560.626 102.7C558.959 103.967 556.692 104.6 553.826 104.6C552.159 104.6 550.992 103.733 550.326 102C549.726 100.267 549.426 97.7333 549.426 94.4C549.426 87.4 549.759 81.9333 550.426 78C551.159 74 552.559 69.9667 554.626 65.9C551.559 62.9667 550.026 60.4333 550.026 58.3C550.026 53.8333 552.426 51.6 557.226 51.6C559.692 51.6 561.859 52.9 563.726 55.5C565.059 57.3 566.026 59.4 566.626 61.8C567.559 62.1333 568.726 62.3 570.126 62.3C572.059 62.3 574.292 61.6667 576.826 60.4L579.426 59.1C580.226 58.7 580.926 58.5 581.526 58.5C583.459 58.5 585.392 61.3333 587.326 67C586.726 69.6 586.059 72.1 585.326 74.5C584.659 76.9 583.859 79.8 582.926 83.2C581.992 86.6 581.492 88.9 581.426 90.1C581.426 91.2333 581.792 91.8 582.526 91.8C583.526 91.8 584.759 91.1667 586.226 89.9C587.692 88.6333 589.159 87.2667 590.626 85.8C592.092 84.2667 593.426 82.8667 594.626 81.6C595.892 80.3333 596.759 79.7 597.226 79.7C598.159 79.7 598.626 80.8333 598.626 83.1C598.626 87.7 596.592 92.2333 592.526 96.7C588.526 101.167 583.926 103.367 578.726 103.3C575.659 103.3 573.359 102.067 571.826 99.6C570.292 97.1333 569.492 94.1333 569.426 90.6C569.426 83.6 570.992 76.9667 574.126 70.7C572.659 71.3 570.992 71.6 569.126 71.6C567.326 71.6 566.026 71.5333 565.226 71.4C564.626 73.9333 564.026 76.5 563.426 79.1C562.826 81.6333 562.526 84 562.526 86.2ZM605.629 103.3C598.962 103.3 595.629 97.0667 595.629 84.6C595.629 77.8 596.462 71.6333 598.129 66.1C600.729 57.5667 603.662 53.3 606.929 53.3C608.862 53.3 610.396 54.6 611.529 57.2C612.462 59.2 612.896 61.1667 612.829 63.1C612.829 65.7667 612.029 70.4667 610.429 77.2C608.896 83.0667 608.129 86.7 608.129 88.1C608.129 89.5 608.462 90.4667 609.129 91C609.862 91.5333 610.696 91.8 611.629 91.8C612.629 91.8 613.862 91.1667 615.329 89.9C616.796 88.6333 618.262 87.2667 619.729 85.8C621.196 84.2667 622.529 82.8667 623.729 81.6C624.996 80.3333 625.862 79.7 626.329 79.7C627.262 79.7 627.729 80.8333 627.729 83.1C627.729 87.7667 625.362 92.3333 620.629 96.8C615.962 101.2 610.962 103.367 605.629 103.3ZM609.729 45.2C607.929 42.5333 607.029 39.6667 607.029 36.6C607.029 33.5333 607.496 31 608.429 29C609.429 26.9333 610.362 25.4333 611.229 24.5C612.096 23.5 613.096 23 614.229 23C616.096 23 617.796 24.4 619.329 27.2C620.862 29.9333 621.629 32.2333 621.629 34.1C621.629 37.5667 620.396 40.3 617.929 42.3C615.529 44.2333 612.796 45.2 609.729 45.2ZM627.13 97.6C626.397 95.8 625.864 93.7333 625.53 91.4C625.197 89 625.03 85.6667 625.03 81.4C625.03 77.1333 625.83 71.3667 627.43 64.1H622.93C622.13 64.1 621.73 63.7667 621.73 63.1C621.73 61.5 621.864 60.2 622.13 59.2C622.464 58.1333 623.197 56.9333 624.33 55.6H626.73C627.664 55.6 628.664 55.5667 629.73 55.5C632.93 45.2333 636.197 40.1 639.53 40.1C642.197 40.1667 644.064 41.8667 645.13 45.2C645.397 46.1333 645.697 47.1333 646.03 48.2L641.93 55.4C646.597 55.5333 649.53 55.6 650.73 55.6C651.997 55.6 652.664 55.7333 652.73 56C652.864 56.2 652.93 56.5333 652.93 57C652.93 58.2 652.63 59.7 652.03 61.5C651.497 63.3 650.864 64.1667 650.13 64.1L640.13 63.6C638.73 71.7333 638.03 78.4667 638.03 83.8C638.03 89.1333 638.797 91.8 640.33 91.8C641.597 91.8 643.897 90.7667 647.23 88.7C650.564 86.5667 652.964 84.5333 654.43 82.6C655.897 80.6667 657.097 79.7 658.03 79.7C658.964 79.7 659.43 80.8333 659.43 83.1C659.43 85.3667 658.63 87.7 657.03 90.1C655.43 92.4333 653.397 94.6 650.93 96.6C648.53 98.5333 645.83 100.133 642.83 101.4C639.897 102.667 637.33 103.3 635.13 103.3C632.93 103.3 631.23 102.8 630.03 101.8C628.897 100.733 627.93 99.3333 627.13 97.6ZM694.869 94.5C689.602 100.7 683.269 103.8 675.869 103.8C668.535 103.8 663.035 101.933 659.369 98.2C655.702 94.4 653.902 89.7 653.969 84.1C653.902 76.1667 656.402 69.3333 661.469 63.6C666.535 57.8667 673.169 55 681.369 55C685.102 55 688.102 55.4667 690.369 56.4C694.302 58 696.269 59.5 696.269 60.9C696.269 61.9667 693.502 62.5333 687.969 62.6C682.502 62.6 677.902 64.5 674.169 68.3C670.502 72.0333 668.669 76.7667 668.669 82.5C668.669 85.5 669.535 88.0333 671.269 90.1C673.069 92.1 675.569 93.1 678.769 93.1C682.035 93.1 684.735 92.4333 686.869 91.1C682.135 87.9 679.769 83.2667 679.769 77.2C679.702 74 680.835 71.1 683.169 68.5C685.569 65.8333 688.602 64.5 692.269 64.5C696.002 64.4333 698.669 65.4333 700.269 67.5C701.869 69.5667 702.669 72.2333 702.669 75.5C702.669 78.7 701.902 82.1 700.369 85.7H700.969C703.902 85.6333 706.435 84.6 708.569 82.6C709.369 81.8 710.035 81.1 710.569 80.5C711.169 79.9 711.769 79.6 712.369 79.6C713.302 79.6 713.769 80.7 713.769 82.9C713.769 86.9667 712.569 90.0333 710.169 92.1C707.769 94.1 705.102 95.1 702.169 95.1C699.302 95.1 696.869 94.9 694.869 94.5ZM693.969 82.9C695.102 80.5 695.669 78.1667 695.669 75.9C695.669 73.6333 694.935 72.5 693.469 72.5C692.869 72.5 692.369 72.9333 691.969 73.8C691.569 74.6667 691.369 75.5 691.369 76.3C691.369 78.9667 692.235 81.1667 693.969 82.9ZM731.566 54.6C736.032 54.5333 739.366 55.3667 741.566 57.1C743.766 58.7667 744.866 61.2 744.866 64.4C744.866 67.5333 743.899 70.2333 741.966 72.5C740.099 74.7 737.799 76.2667 735.066 77.2C736.999 79.2 738.732 81.2333 740.266 83.3C741.866 85.3667 742.666 87.5333 742.666 89.8C742.666 94.2667 740.899 97.7333 737.366 100.2C733.832 102.6 728.899 103.8 722.566 103.8C716.299 103.8 711.599 102.567 708.466 100.1C705.332 97.5667 703.766 94.7333 703.766 91.6C703.766 88.4 704.532 85.5 706.066 82.9C707.666 80.3 709.366 79 711.166 79C712.232 79 712.999 79.4 713.466 80.2C713.932 80.9333 714.799 83.1333 716.066 86.8C716.532 88.1333 717.299 89.4 718.366 90.6C720.832 93.3333 724.732 94.7 730.066 94.7C729.266 92.1667 727.966 90 726.166 88.2C724.432 86.3333 722.699 84.5333 720.966 82.8C719.232 81.0667 717.699 79.2333 716.366 77.3C715.032 75.3 714.366 72.9667 714.366 70.3C714.366 65.5 716.166 61.6 719.766 58.6C723.166 55.9333 727.099 54.6 731.566 54.6ZM731.166 73.1C733.832 70.2333 735.166 67.9333 735.166 66.2C735.166 65.4 734.866 64.7 734.266 64.1C733.732 63.4333 732.932 63.1 731.866 63.1C730.799 63.1 729.766 63.2333 728.766 63.5C727.832 63.7667 727.066 63.9667 726.466 64.1C726.466 66.6333 728.032 69.6333 731.166 73.1ZM782.002 34C783.136 32.8667 784.336 32.3 785.602 32.3C787.736 32.3 789.569 33.1 791.102 34.7C792.702 36.2333 793.536 37.5 793.602 38.5C793.536 40.3 792.869 42.2333 791.602 44.3C790.402 46.3 789.069 48.4333 787.602 50.7C786.136 52.9 784.802 55.2333 783.602 57.7C782.402 60.1 781.802 62.3 781.802 64.3C781.802 66.2333 781.969 68.1 782.302 69.9C782.636 71.6333 782.802 73.0667 782.802 74.2C782.802 76.2 781.569 77.8333 779.102 79.1C776.636 80.3 774.302 80.9 772.102 80.9C769.902 80.9 768.469 80.3667 767.802 79.3C767.202 78.1667 766.902 76.4667 766.902 74.2C766.902 68.6667 768.269 61.7 771.002 53.3C773.802 44.8333 777.469 38.4 782.002 34ZM781.302 94.1C779.969 97.5 777.969 100.333 775.302 102.6C772.636 104.8 769.736 105.9 766.602 105.9C763.469 105.9 761.902 104.2 761.902 100.8C761.902 97.3333 763.002 94.2333 765.202 91.5C767.469 88.7667 769.736 87.4 772.002 87.4C776.002 87.4 779.102 89.6333 781.302 94.1ZM831.709 34C832.843 32.8667 834.043 32.3 835.309 32.3C837.443 32.3 839.276 33.1 840.809 34.7C842.409 36.2333 843.243 37.5 843.309 38.5C843.243 40.3 842.576 42.2333 841.309 44.3C840.109 46.3 838.776 48.4333 837.309 50.7C835.843 52.9 834.509 55.2333 833.309 57.7C832.109 60.1 831.509 62.3 831.509 64.3C831.509 66.2333 831.676 68.1 832.009 69.9C832.343 71.6333 832.509 73.0667 832.509 74.2C832.509 76.2 831.276 77.8333 828.809 79.1C826.343 80.3 824.009 80.9 821.809 80.9C819.609 80.9 818.176 80.3667 817.509 79.3C816.909 78.1667 816.609 76.4667 816.609 74.2C816.609 68.6667 817.976 61.7 820.709 53.3C823.509 44.8333 827.176 38.4 831.709 34ZM831.009 94.1C829.676 97.5 827.676 100.333 825.009 102.6C822.343 104.8 819.443 105.9 816.309 105.9C813.176 105.9 811.609 104.2 811.609 100.8C811.609 97.3333 812.709 94.2333 814.909 91.5C817.176 88.7667 819.443 87.4 821.709 87.4C825.709 87.4 828.809 89.6333 831.009 94.1Z" fill="url(#paint0_linear_2060_158)"/>
<path d="M501 358.875C500.121 358.875 499.34 358.582 498.754 357.996L480.004 339.246C478.734 338.074 478.734 336.023 480.004 334.852C481.176 333.582 483.227 333.582 484.398 334.852L501 351.355L517.504 334.852C518.676 333.582 520.727 333.582 521.898 334.852C523.168 336.023 523.168 338.074 521.898 339.246L503.148 357.996C502.562 358.582 501.781 358.875 501 358.875Z" fill="white"/>
<defs>
<linearGradient id="paint0_linear_2060_158" x1="2" y1="57" x2="794.943" y2="57" gradientUnits="userSpaceOnUse">
<stop stop-color="#F4BC5C"/>
<stop offset="1" stop-color="#FF8C00"/>
</linearGradient>
</defs>
</svg>
